<svg xmlns="http://www.w3.org/2000/svg" version="1.1" xmlns:xlink="http://www.w3.org/1999/xlink" xmlns:svgjs="http://svgjs.dev/svgjs" width="1000" height="1193" viewBox="0 0 1000 1193"><g transform="matrix(1,0,0,1,-1.14365351005074,0.483006384117175)"><svg viewBox="0 0 207 247" data-background-color="#ffffff" preserveAspectRatio="xMidYMid meet" height="1193" width="1000" xmlns="http://www.w3.org/2000/svg" xmlns:xlink="http://www.w3.org/1999/xlink"><g id="tight-bounds" transform="matrix(1,0,0,1,0.23673645016367573,-0.10000030857105457)"><svg viewBox="0 0 206.52651757188497 247.2" height="247.2" width="206.52651757188497"><g><svg viewBox="0 0 206.52651757188497 247.2" height="247.2" width="206.52651757188497"><g><svg viewBox="0 0 206.52651757188497 247.2" height="247.2" width="206.52651757188497"><g id="textblocktransform"><svg viewBox="0 0 206.52651757188497 247.2" height="247.2" width="206.52651757188497" id="textblock"><g><svg viewBox="0 0 206.52651757188497 247.2" height="247.2" width="206.52651757188497"><g transform="matrix(1,0,0,1,0,0)"><svg width="206.52651757188497" viewBox="0.5400000214576721 -30.489999771118164 25.529998779296875 30.559999465942383" height="247.2" data-palette-color="#ed3b43"><path d="M2.39 0.07Q1.42 0.07 0.98-0.11 0.54-0.29 0.54-0.66L0.54-0.66Q0.54-0.83 0.66-1.25L0.66-1.25 10.94-29.79Q11.18-30.49 12.67-30.49L12.67-30.49 13.94-30.49Q15.43-30.49 15.67-29.79L15.67-29.79 25.95-1.22Q26.07-0.95 26.07-0.66L26.07-0.66Q26.07 0.07 24.24 0.07L24.24 0.07 23.88 0.07Q22.36 0.07 22.12-0.61L22.12-0.61 19.58-7.74 6.84-7.74 4.35-0.61Q4.13 0.07 2.61 0.07L2.61 0.07 2.39 0.07ZM8.03-11.04L18.41-11.04 13.87-23.95Q13.67-24.49 13.55-25.17 13.43-25.85 13.33-26.49L13.33-26.49 13.23-26.49Q12.94-24.85 12.57-23.95L12.57-23.95 8.03-11.04Z" opacity="1" transform="matrix(1,0,0,1,0,0)" fill="#ed3b43" class="undefined-text-0" data-fill-palette-color="primary" id="text-0"></path></svg></g></svg></g></svg></g></svg></g></svg></g><defs></defs></svg><rect width="206.52651757188497" height="247.2" fill="none" stroke="none" visibility="hidden"></rect></g></svg></g></svg>