<svg xmlns="http://www.w3.org/2000/svg" version="1.1" xmlns:xlink="http://www.w3.org/1999/xlink" xmlns:svgjs="http://svgjs.dev/svgjs" width="1000" height="194" viewBox="0 0 1000 194"><g transform="matrix(1,0,0,1,-0.6060600712105497,-0.23758891919699465)"><svg viewBox="0 0 396 77" data-background-color="#ffffff" preserveAspectRatio="xMidYMid meet" height="194" width="1000" xmlns="http://www.w3.org/2000/svg" xmlns:xlink="http://www.w3.org/1999/xlink"><g id="tight-bounds" transform="matrix(1,0,0,1,0.24000021180063413,0.09430075658849546)"><svg viewBox="0 0 395.52 76.811398486823" height="76.811398486823" width="395.52"><g><svg viewBox="0 0 395.52 76.811398486823" height="76.811398486823" width="395.52"><g><svg viewBox="0 0 395.52 76.811398486823" height="76.811398486823" width="395.52"><g id="textblocktransform"><svg viewBox="0 0 395.52 76.811398486823" height="76.811398486823" width="395.52" id="textblock"><g><svg viewBox="0 0 395.52 76.811398486823" height="76.811398486823" width="395.52"><g transform="matrix(1,0,0,1,0,0)"><svg width="395.52" viewBox="1.7270002365112305 -30.176010131835938 220.83248901367188 42.886470794677734" height="76.811398486823" data-palette-color="#ee3e38"><path d="M9.696 4.299l-1.151 7.541c-1.41 0.087-3.044 0.277-4.902 0.569v0l-1.916 0.301 5.899-31.216c0.259-1.397 0.372-2.205 0.337-2.422-0.034-0.217-0.065-0.351-0.093-0.4v0l0.022-0.054c1.055-0.112 2.176-0.261 3.361-0.448v0c0.968-0.152 2.128-0.352 3.479-0.599v0l0.028 0.047c-0.017 0.063-0.016 0.154 0.002 0.273v0c0.048 0.303 0.417 1.082 1.107 2.336v0l15.425 27.901c-0.325 0.038-0.704 0.091-1.139 0.159v0c0 0-0.424 0.05-1.272 0.15v0c-0.402 0.063-0.764 0.12-1.087 0.171v0l-3.764 0.592-3.381-6.625zM10.618-1.808l7.231-1.138-5.439-10.695zM41.813 6.793l-2.313 0.279c-2.389 0.288-3.968 0.529-4.738 0.723v0l-3.948-32.702c0.402 0.052 1.216 0.004 2.44-0.144 1.231-0.149 2.653-0.354 4.267-0.616v0l3.219 26.657 5.043-0.609c1.463-0.177 2.628-0.368 3.497-0.573v0c0.34 3.82 0.519 5.803 0.536 5.948v0l0.029 0.238c-1.602 0.079-4.279 0.345-8.032 0.799zM61.032-0.975l9.976-0.834c1.01-0.084 1.702-0.243 2.077-0.474v0l0.103 0.021 0.273 6.159-18.326 1.531-2.733-32.706c0.441-0.003 0.932-0.018 1.471-0.042v0l1.719-0.094c1.145-0.062 2.386-0.149 3.721-0.26v0c3.734-0.312 7.422-0.687 11.064-1.126v0c-0.059 1.45 0.011 3.374 0.212 5.772v0c0.022 0.259 0.055 0.454 0.099 0.584v0l-0.044 0.074c-0.864-0.175-2.08-0.197-3.648-0.066v0l-7.703 0.644 0.521 6.238 5.79-0.484c1.794-0.15 2.866-0.29 3.216-0.419v0l0.585 6.042c-0.791-0.021-1.808 0.021-3.05 0.124v0l-6.059 0.507zM89.601-18.731l3.859-8.331c0.321-0.732 0.475-1.274 0.463-1.627-0.012-0.353-0.055-0.608-0.127-0.766v0l8.824-0.311c-0.173 0.2-0.391 0.441-0.655 0.723-0.27 0.276-0.572 0.611-0.905 1.003v0c-0.781 0.941-1.493 2.031-2.136 3.267v0l-5.536 11.002 5.882 10.179 0.717 1.326c1.33 2.541 2.445 4.253 3.343 5.135v0l-7.995 0.282c-0.087-0.571-0.39-1.33-0.911-2.279v0l-5.142-9.055c-3.143 6.975-4.751 10.571-4.823 10.787v0c-0.07 0.276-0.123 0.588-0.157 0.936v0l-8.005 0.282c0.584-0.641 1.177-1.539 1.776-2.694v0l2.755-5.321 4.914-9.038-7.321-12.69c-0.782-1.367-1.463-2.34-2.044-2.92v0l8.244-0.291c-0.061 0.162-0.088 0.343-0.081 0.543v0c0.015 0.44 0.24 1.046 0.675 1.818v0zM120.353-24.137l-0.24 27.299c-0.786-0.107-2.805-0.175-6.058-0.203v0l-0.78-0.007 0.238-27.149-4.86-0.043c-1.44-0.013-2.294 0.053-2.561 0.198-0.261 0.151-0.466 0.283-0.614 0.395v0l-0.07-0.031 0.055-6.28 0.071-0.069c0.538 0.185 1.994 0.288 4.368 0.308v0l15.389 0.135c1.44 0.013 2.291-0.053 2.552-0.197 0.261-0.151 0.466-0.283 0.613-0.395v0l0.08 0.031-0.055 6.279-0.081 0.07c-0.538-0.185-1.994-0.288-4.367-0.309v0zM144.849-18.123l4.58-7.957c0.385-0.701 0.586-1.227 0.605-1.58 0.019-0.353-0.001-0.611-0.059-0.774v0l8.818 0.47c-0.19 0.183-0.429 0.404-0.717 0.663-0.294 0.251-0.624 0.558-0.99 0.919v0c-0.861 0.869-1.666 1.891-2.417 3.065v0l-6.487 10.469 4.959 10.66 0.597 1.384c1.1 2.649 2.059 4.453 2.876 5.411v0l-7.989-0.427c-0.036-0.576-0.271-1.36-0.705-2.351v0l-4.322-9.473c-3.747 6.67-5.667 10.109-5.758 10.317v0c-0.094 0.269-0.174 0.575-0.239 0.919v0l-7.999-0.427c0.639-0.587 1.308-1.429 2.008-2.527v0l3.214-5.055 5.695-8.569-6.171-13.288c-0.658-1.43-1.251-2.46-1.778-3.089v0l8.238 0.44c-0.075 0.156-0.118 0.334-0.128 0.534v0c-0.023 0.439 0.147 1.063 0.511 1.869v0zM168.179 5.744l-6.379-0.63c0.154-0.541 0.263-1.14 0.328-1.797v0l3.029-30.671 4.887 0.483 10.934 21.65 1.848-18.709c0.088-0.896 0.06-1.458-0.084-1.687v0l6.598 0.652c-0.144 0.642-0.254 1.355-0.332 2.138v0l-2.996 30.332-5.085-0.502-10.816-20.824zM201.726-0.119l-1.538 9.972c-1.098-0.27-2.514-0.539-4.246-0.807v0l-1.918-0.295 4.988-32.358 0.961 0.199c0.674 0.138 1.182 0.233 1.524 0.285v0l0.702 0.109c1.423 0.219 2.428 0.307 3.015 0.262v0l-2.113 13.708 11.922-12.095c1.024 0.225 1.892 0.393 2.604 0.503v0l1.334 0.205c1.667 0.257 2.866 0.374 3.598 0.353v0l-11.244 10.783 6.392 19.713c0.252 0.949 0.518 1.651 0.798 2.107v0l-1.482-0.229c-3.413-0.526-5.551-0.788-6.416-0.786v0c-0.01-1.115-0.105-2.1-0.282-2.958v0l-4.371-12.735z" opacity="1" transform="matrix(1,0,0,1,0,0)" fill="#ee3e38" class="undefined-text-0" data-fill-palette-color="primary" id="text-0"></path></svg></g></svg></g></svg></g></svg></g><g></g></svg></g><defs></defs></svg><rect width="395.52" height="76.811398486823" fill="none" stroke="none" visibility="hidden"></rect></g></svg></g></svg>