<svg xmlns="http://www.w3.org/2000/svg" version="1.1" xmlns:xlink="http://www.w3.org/1999/xlink" xmlns:svgjs="http://svgjs.dev/svgjs" width="1000" height="143" viewBox="0 0 1000 143"><g transform="matrix(1,0,0,1,-0.6060569435555863,-0.284023302609711)"><svg viewBox="0 0 396 57" data-background-color="#ffffff" preserveAspectRatio="xMidYMid meet" height="143" width="1000" xmlns="http://www.w3.org/2000/svg" xmlns:xlink="http://www.w3.org/1999/xlink"><g id="tight-bounds" transform="matrix(1,0,0,1,0.23999854964802125,0.11321208565561847)"><svg viewBox="0 0 395.52 56.77357582868876" height="56.77357582868876" width="395.52"><g><svg viewBox="0 0 395.52 56.77357582868876" height="56.77357582868876" width="395.52"><g><svg viewBox="0 0 395.52 56.77357582868876" height="56.77357582868876" width="395.52"><g id="textblocktransform"><svg viewBox="0 0 395.52 56.77357582868876" height="56.77357582868876" width="395.52" id="textblock"><g><svg viewBox="0 0 395.52 56.77357582868876" height="56.77357582868876" width="395.52"><g transform="matrix(1,0,0,1,0,0)"><svg width="395.52" viewBox="0 -35.84000015258789 249.6699981689453 35.84000015258789" height="56.77357582868876" data-palette-color="#ff5858"><path d="M33.06 0L26.86 0 23.29-9.91 9.64-9.91 6.15 0 0 0 13.35-35.84 19.7-35.84 33.06 0ZM11.35-14.94L21.75-14.94 18.41-24.66Q18.04-25.63 17.4-27.73 16.75-29.83 16.5-30.81L16.5-30.81Q15.84-27.81 14.58-24.24L14.58-24.24 11.35-14.94ZM58.71 0L37.77 0 37.77-35.69 43.6-35.69 43.6-5 58.71-5 58.71 0ZM85.05-4.96L85.05 0 64.86 0 64.86-35.69 85.05-35.69 85.05-30.76 70.7-30.76 70.7-21.04 84.15-21.04 84.15-16.16 70.7-16.16 70.7-4.96 85.05-4.96ZM107.05-18.41L119.06 0 112.35 0 103.41-14.6 94.4 0 88.15 0 99.99-18.51 88.91-35.69 95.4-35.69 103.65-22.19 111.91-35.69 118.21-35.69 107.05-18.41ZM136.2-30.69L136.2 0 130.36 0 130.36-30.69 119.86-30.69 119.86-35.69 146.69-35.69 146.69-30.69 136.2-30.69ZM166.44-18.41L178.45 0 171.74 0 162.8-14.6 153.8 0 147.55 0 159.39-18.51 148.3-35.69 154.8-35.69 163.05-22.19 171.3-35.69 177.6-35.69 166.44-18.41ZM213-35.69L213 0 205.84 0 188.29-28.44 188.1-28.44 188.22-26.86Q188.56-22.31 188.56-18.55L188.56-18.55 188.56 0 183.26 0 183.26-35.69 190.34-35.69 207.85-7.4 207.99-7.4Q207.94-7.96 207.8-11.49 207.65-15.01 207.65-16.99L207.65-16.99 207.65-35.69 213-35.69ZM235.9-20.04L249.67 0 242.9 0 231.7-16.16 228.25-13.35 228.25 0 222.42 0 222.42-35.69 228.25-35.69 228.25-18.65Q230.65-21.58 233.01-24.29L233.01-24.29 242.66-35.69 249.3-35.69Q239.95-24.71 235.9-20.04L235.9-20.04Z" opacity="1" transform="matrix(1,0,0,1,0,0)" fill="#ff5858" class="undefined-text-0" data-fill-palette-color="primary" id="text-0"></path></svg></g></svg></g></svg></g></svg></g><g></g></svg></g><defs></defs></svg><rect width="395.52" height="56.77357582868876" fill="none" stroke="none" visibility="hidden"></rect></g></svg></g></svg>